<svg width="123" height="45" viewBox="0 0 123 45" fill="none" xmlns="http://www.w3.org/2000/svg">
<g filter="url(#filter0_d_1_5)">
<path d="M4.22727 36V1.09091H8.45455V16.6364H27.0682V1.09091H31.2955V36H27.0682V20.3864H8.45455V36H4.22727ZM39.2131 36V9.81818H43.2358V36H39.2131ZM41.2585 5.45455C40.4744 5.45455 39.7983 5.1875 39.2301 4.65341C38.6733 4.11932 38.3949 3.47727 38.3949 2.72727C38.3949 1.97727 38.6733 1.33523 39.2301 0.801135C39.7983 0.267045 40.4744 0 41.2585 0C42.0426 0 42.7131 0.267045 43.2699 0.801135C43.8381 1.33523 44.1222 1.97727 44.1222 2.72727C44.1222 3.47727 43.8381 4.11932 43.2699 4.65341C42.7131 5.1875 42.0426 5.45455 41.2585 5.45455ZM61.581 36.5455C59.0582 36.5455 56.8821 35.9886 55.0526 34.875C53.2344 33.75 51.831 32.1818 50.8423 30.1705C49.8651 28.1477 49.3764 25.7955 49.3764 23.1136C49.3764 20.4318 49.8651 18.0682 50.8423 16.0227C51.831 13.9659 53.206 12.3636 54.9673 11.2159C56.7401 10.0568 58.8082 9.47727 61.1719 9.47727C62.5355 9.47727 63.8821 9.70455 65.2116 10.1591C66.5412 10.6136 67.7514 11.3523 68.8423 12.375C69.9332 13.3864 70.8026 14.7273 71.4503 16.3977C72.098 18.0682 72.4219 20.125 72.4219 22.5682V24.2727H52.2401V20.7955H68.331C68.331 19.3182 68.0355 18 67.4446 16.8409C66.8651 15.6818 66.0355 14.767 64.956 14.0966C63.8878 13.4261 62.6264 13.0909 61.1719 13.0909C59.5696 13.0909 58.1832 13.4886 57.0128 14.2841C55.8537 15.0682 54.9616 16.0909 54.3366 17.3523C53.7116 18.6136 53.3991 19.9659 53.3991 21.4091V23.7273C53.3991 25.7045 53.7401 27.3807 54.4219 28.7557C55.1151 30.1193 56.0753 31.1591 57.3026 31.875C58.5298 32.5795 59.956 32.9318 61.581 32.9318C62.6378 32.9318 63.5923 32.7841 64.4446 32.4886C65.3082 32.1818 66.0526 31.7273 66.6776 31.125C67.3026 30.5114 67.7855 29.75 68.1264 28.8409L72.0128 29.9318C71.6037 31.25 70.9162 32.4091 69.9503 33.4091C68.9844 34.3977 67.7912 35.1705 66.3707 35.7273C64.9503 36.2727 63.3537 36.5455 61.581 36.5455ZM78.5412 36V9.81818H82.4276V13.7727H82.7003C83.1776 12.4773 84.0412 11.4261 85.2912 10.6193C86.5412 9.8125 87.9503 9.40909 89.5185 9.40909C89.8139 9.40909 90.1832 9.41477 90.6264 9.42614C91.0696 9.4375 91.4048 9.45455 91.6321 9.47727V13.5682C91.4957 13.5341 91.1832 13.483 90.6946 13.4148C90.2173 13.3352 89.7116 13.2955 89.1776 13.2955C87.9048 13.2955 86.7685 13.5625 85.7685 14.0966C84.7798 14.6193 83.9957 15.3466 83.4162 16.2784C82.848 17.1989 82.5639 18.25 82.5639 19.4318V36H78.5412ZM106.24 36.5455C103.876 36.5455 101.803 35.983 100.018 34.858C98.2457 33.733 96.8594 32.1591 95.8594 30.1364C94.8707 28.1136 94.3764 25.75 94.3764 23.0455C94.3764 20.3182 94.8707 17.9375 95.8594 15.9034C96.8594 13.8693 98.2457 12.2898 100.018 11.1648C101.803 10.0398 103.876 9.47727 106.24 9.47727C108.604 9.47727 110.672 10.0398 112.445 11.1648C114.229 12.2898 115.615 13.8693 116.604 15.9034C117.604 17.9375 118.104 20.3182 118.104 23.0455C118.104 25.75 117.604 28.1136 116.604 30.1364C115.615 32.1591 114.229 33.733 112.445 34.858C110.672 35.983 108.604 36.5455 106.24 36.5455ZM106.24 32.9318C108.036 32.9318 109.513 32.4716 110.672 31.5511C111.831 30.6307 112.689 29.4205 113.246 27.9205C113.803 26.4205 114.081 24.7955 114.081 23.0455C114.081 21.2955 113.803 19.6648 113.246 18.1534C112.689 16.642 111.831 15.4205 110.672 14.4886C109.513 13.5568 108.036 13.0909 106.24 13.0909C104.445 13.0909 102.967 13.5568 101.808 14.4886C100.649 15.4205 99.7912 16.642 99.2344 18.1534C98.6776 19.6648 98.3991 21.2955 98.3991 23.0455C98.3991 24.7955 98.6776 26.4205 99.2344 27.9205C99.7912 29.4205 100.649 30.6307 101.808 31.5511C102.967 32.4716 104.445 32.9318 106.24 32.9318Z" fill="#5D1F98"/>
</g>
<defs>
<filter id="filter0_d_1_5" x="0.227264" y="0" width="121.876" height="44.5455" filterUnits="userSpaceOnUse" color-interpolation-filters="sRGB">
<feFlood flood-opacity="0" result="BackgroundImageFix"/>
<feColorMatrix in="SourceAlpha" type="matrix" values="0 0 0 0 0 0 0 0 0 0 0 0 0 0 0 0 0 0 127 0" result="hardAlpha"/>
<feOffset dy="4"/>
<feGaussianBlur stdDeviation="2"/>
<feComposite in2="hardAlpha" operator="out"/>
<feColorMatrix type="matrix" values="0 0 0 0 0 0 0 0 0 0 0 0 0 0 0 0 0 0 0.25 0"/>
<feBlend mode="normal" in2="BackgroundImageFix" result="effect1_dropShadow_1_5"/>
<feBlend mode="normal" in="SourceGraphic" in2="effect1_dropShadow_1_5" result="shape"/>
</filter>
</defs>
</svg>
